<svg width="19" height="18" viewBox="0 0 19 18" fill="none" xmlns="http://www.w3.org/2000/svg">
<path d="M10.6943 10.5363C10.6165 10.6062 10.5026 10.7089 10.5026 10.8848C10.5026 11.0676 10.6233 11.2514 10.841 11.3992C11.8302 12.0906 13.6846 12.0083 13.7647 12.006H13.7669C14.5193 12.006 15.2558 11.803 15.9033 11.4206C16.5544 11.0397 17.0948 10.4952 17.4707 9.84106C17.8466 9.18696 18.0451 8.44599 18.0464 7.69157C18.0667 6.20717 17.5501 5.18975 17.2952 4.68668L17.2501 4.59644C15.7487 1.67728 12.5262 0 9.02271 0C7.16552 2.637e-06 5.35356 0.573045 3.8341 1.64093C2.31463 2.70882 1.16167 4.21953 0.532547 5.96691C1.67743 4.56599 3.58932 3.67941 5.63883 3.67941C8.83095 3.67941 11.2899 5.80561 11.2899 9.09024H11.2854V9.09249C11.2854 9.47374 11.0959 10.031 10.7361 10.4957L10.7428 10.4889C10.7275 10.5051 10.7113 10.5217 10.6943 10.5363Z" fill="white"/>
<path d="M0.0103646 8.7453C-0.027265 10.1615 0.263441 11.5671 0.859719 12.8522C1.52735 14.2736 2.55435 15.4961 3.83921 16.399C5.12407 17.3019 6.62231 17.8538 8.18582 18.0002C7.87932 17.8834 7.58314 17.7412 7.30038 17.575H7.2891L7.15374 17.4904C6.46397 17.0619 5.86592 16.5011 5.39412 15.8402C4.85583 15.1035 4.48531 14.2578 4.30856 13.3627C4.13181 12.4676 4.15313 11.5446 4.37101 10.6586C4.58888 9.77255 4.99805 8.94495 5.56977 8.23387C6.1415 7.52278 6.86193 6.94545 7.6805 6.54239L7.69178 6.53788L7.71998 6.52434C7.95459 6.4138 8.41931 6.19498 9.03631 6.20288C9.18181 6.204 9.32619 6.21641 9.46944 6.2401C9.1379 5.92271 8.76028 5.65727 8.34938 5.45278L8.3381 5.44714C7.15938 4.83015 5.86335 4.80872 5.63889 4.80872C2.88666 4.80872 0.197606 6.6518 0.0103646 8.7453ZM11.5866 17.6697C11.6859 17.6393 11.7863 17.6088 11.8855 17.575C11.7705 17.6111 11.6554 17.6427 11.5393 17.672L11.5866 17.6697Z" fill="white"/>
<path d="M11.5359 17.6721C11.6508 17.6432 11.7647 17.6108 11.8777 17.5751L11.9701 17.5469C13.9124 16.8754 15.5681 15.5626 16.6647 13.8246C16.6965 13.7718 16.7101 13.71 16.7035 13.6488C16.6969 13.5875 16.6704 13.5301 16.628 13.4853C16.5857 13.4406 16.5299 13.4109 16.4691 13.4009C16.4083 13.3908 16.3458 13.401 16.2914 13.4298C16.0489 13.5561 15.7996 13.6667 15.5435 13.7614C14.7342 14.0627 13.8771 14.2155 13.0135 14.2126C9.67813 14.2126 6.77363 11.9217 6.77363 8.97435C6.77589 8.82207 6.79281 8.67205 6.82552 8.52429C5.95878 9.38848 5.42998 10.5344 5.33481 11.7546C5.23964 12.9749 5.58438 14.1889 6.30665 15.177L6.31004 15.1826C6.66535 15.6801 7.10751 16.1087 7.61622 16.4471H7.6196L7.78203 16.5486C8.77125 17.169 9.72325 17.7645 11.5359 17.6721Z" fill="white"/>
</svg>
