<svg width="20" height="20" viewBox="0 0 20 20" fill="none" xmlns="http://www.w3.org/2000/svg">
<path d="M16.0555 2.94165C19.0347 8.87705 14.8709 12.3016 11.3923 13.0719M4.53763 16.6903C1.03474 10.4456 5.29949 6.84053 8.87437 6.02844M7.50135 0.954952C17.4759 1.82105 14.4041 12.8061 11.3617 13.1024M12.803 18.1366C6.42093 17.5819 5.38112 12.8831 6.25767 9.49407M1.11972 8.17881C4.7754 2.01905 10.2298 4.1623 12.6171 6.91881M18.9171 10.7867C15.5222 16.6095 10.5425 15.1729 7.92707 12.7207M13.7465 9.59998C13.7465 10.092 13.6496 10.5792 13.4613 11.0337C13.273 11.4883 12.9971 11.9013 12.6492 12.2492C12.3013 12.5971 11.8883 12.873 11.4337 13.0613C10.9792 13.2496 10.492 13.3465 10 13.3465C9.00636 13.3465 8.05342 12.9518 7.35082 12.2492C6.64821 11.5466 6.25349 10.5936 6.25349 9.59998C6.25349 8.60634 6.64821 7.6534 7.35082 6.95079C8.05342 6.24818 9.00636 5.85346 10 5.85346C10.492 5.85346 10.9792 5.95037 11.4337 6.13865C11.8883 6.32693 12.3013 6.6029 12.6492 6.95079C12.9971 7.29869 13.273 7.7117 13.4613 8.16625C13.6496 8.6208 13.7465 9.10798 13.7465 9.59998ZM19 9.59998C19 14.5705 14.9705 18.6 10 18.6C5.02949 18.6 1 14.5705 1 9.59998C1 4.62946 5.02949 0.599976 10 0.599976C14.9705 0.599976 19 4.62946 19 9.59998Z" stroke="black" stroke-linecap="round" stroke-linejoin="round"/>
</svg>
