<svg width="13" height="15" viewBox="0 0 13 15" fill="none" xmlns="http://www.w3.org/2000/svg">
<path d="M11.4706 0H4.58824C3.74706 0 3.05882 0.675 3.05882 1.5V10.5C3.05882 11.325 3.74706 12 4.58824 12H11.4706C12.3118 12 13 11.325 13 10.5V1.5C13 0.675 12.3118 0 11.4706 0ZM11.4706 10.5H4.58824V1.5H11.4706V10.5ZM0 9.75V8.25H1.52941V9.75H0ZM0 5.625H1.52941V7.125H0V5.625ZM5.35294 13.5H6.88235V15H5.35294V13.5ZM0 12.375V10.875H1.52941V12.375H0ZM1.52941 15C0.688235 15 0 14.325 0 13.5H1.52941V15ZM4.20588 15H2.67647V13.5H4.20588V15ZM8.02941 15V13.5H9.55882C9.55882 14.325 8.87059 15 8.02941 15ZM1.52941 3V4.5H0C0 3.675 0.688235 3 1.52941 3Z" fill="white"/>
</svg>
