<svg width="18" height="19" viewBox="0 0 18 19" fill="none" xmlns="http://www.w3.org/2000/svg">
<path d="M14.3617 3.66381H0.574468C0.42211 3.66381 0.275991 3.72433 0.168258 3.83206C0.0605241 3.9398 0 4.08592 0 4.23827V18.0255C0 18.1779 0.0605241 18.324 0.168258 18.4317C0.275991 18.5395 0.42211 18.6 0.574468 18.6H14.3617C14.5141 18.6 14.6602 18.5395 14.7679 18.4317C14.8756 18.324 14.9362 18.1779 14.9362 18.0255V4.23827C14.9362 4.08592 14.8756 3.9398 14.7679 3.83206C14.6602 3.72433 14.5141 3.66381 14.3617 3.66381ZM13.7872 17.451H1.14894V4.81274H13.7872V17.451ZM18 1.17444V14.9617C18 15.114 17.9395 15.2602 17.8317 15.3679C17.724 15.4756 17.5779 15.5361 17.4255 15.5361C17.2732 15.5361 17.1271 15.4756 17.0193 15.3679C16.9116 15.2602 16.8511 15.114 16.8511 14.9617V1.74891H3.6383C3.48594 1.74891 3.33982 1.68839 3.23209 1.58065C3.12435 1.47292 3.06383 1.3268 3.06383 1.17444C3.06383 1.02209 3.12435 0.875967 3.23209 0.768233C3.33982 0.6605 3.48594 0.599976 3.6383 0.599976H17.4255C17.5779 0.599976 17.724 0.6605 17.8317 0.768233C17.9395 0.875967 18 1.02209 18 1.17444Z" fill="black"/>
</svg>
