<svg width="126" height="29" viewBox="0 0 126 29" fill="none" xmlns="http://www.w3.org/2000/svg">
<path d="M0 3C0 1.34315 1.34315 0 3 0H123C124.657 0 126 1.34315 126 3V26C126 27.6569 124.657 29 123 29H3C1.34315 29 0 27.6569 0 26V3Z" fill="#788585"/>
<path d="M119.172 11.5262L114.983 7.33783C114.26 6.6145 113 7.12783 113 8.16617V11.1878H104.833C101.613 11.1878 99 13.8012 99 17.0212V20.5212C99 21.1628 99.525 21.6878 100.167 21.6878C100.808 21.6878 101.333 21.1628 101.333 20.5212V17.0212C101.333 15.0962 102.908 13.5212 104.833 13.5212H113V16.5428C113 17.5812 114.26 18.1062 114.995 17.3712L119.183 13.1828C119.627 12.7278 119.627 11.9812 119.172 11.5262Z" fill="#CCDAD1"/>
<path d="M13.2 22.14C12.2267 22.14 11.3467 21.9734 10.56 21.64C9.78666 21.3067 9.17332 20.8267 8.71999 20.2C8.26666 19.5734 8.03332 18.8334 8.01999 17.98H11.02C11.06 18.5534 11.26 19.0067 11.62 19.34C11.9933 19.6734 12.5 19.84 13.14 19.84C13.7933 19.84 14.3067 19.6867 14.68 19.38C15.0533 19.06 15.24 18.6467 15.24 18.14C15.24 17.7267 15.1133 17.3867 14.86 17.12C14.6067 16.8534 14.2867 16.6467 13.9 16.5C13.5267 16.34 13.0067 16.1667 12.34 15.98C11.4333 15.7134 10.6933 15.4534 10.12 15.2C9.55999 14.9334 9.07332 14.54 8.65999 14.02C8.25999 13.4867 8.05999 12.78 8.05999 11.9C8.05999 11.0734 8.26666 10.3534 8.67999 9.74003C9.09332 9.12669 9.67332 8.66003 10.42 8.34003C11.1667 8.00669 12.02 7.84003 12.98 7.84003C14.42 7.84003 15.5867 8.19336 16.48 8.90003C17.3867 9.59336 17.8867 10.5667 17.98 11.82H14.9C14.8733 11.34 14.6667 10.9467 14.28 10.64C13.9067 10.32 13.4067 10.16 12.78 10.16C12.2333 10.16 11.7933 10.3 11.46 10.58C11.14 10.86 10.98 11.2667 10.98 11.8C10.98 12.1734 11.1 12.4867 11.34 12.74C11.5933 12.98 11.9 13.18 12.26 13.34C12.6333 13.4867 13.1533 13.66 13.82 13.86C14.7267 14.1267 15.4667 14.3934 16.04 14.66C16.6133 14.9267 17.1067 15.3267 17.52 15.86C17.9333 16.3934 18.14 17.0934 18.14 17.96C18.14 18.7067 17.9467 19.4 17.56 20.04C17.1733 20.68 16.6067 21.1934 15.86 21.58C15.1133 21.9534 14.2267 22.14 13.2 22.14Z" fill="#CCDAD1"/>
<path d="M34.9187 22.14C33.9454 22.14 33.0654 21.9734 32.2787 21.64C31.5054 21.3067 30.8921 20.8267 30.4387 20.2C29.9854 19.5734 29.7521 18.8334 29.7387 17.98H32.7387C32.7787 18.5534 32.9787 19.0067 33.3387 19.34C33.7121 19.6734 34.2187 19.84 34.8587 19.84C35.5121 19.84 36.0254 19.6867 36.3987 19.38C36.7721 19.06 36.9587 18.6467 36.9587 18.14C36.9587 17.7267 36.8321 17.3867 36.5787 17.12C36.3254 16.8534 36.0054 16.6467 35.6187 16.5C35.2454 16.34 34.7254 16.1667 34.0587 15.98C33.1521 15.7134 32.4121 15.4534 31.8387 15.2C31.2787 14.9334 30.7921 14.54 30.3787 14.02C29.9787 13.4867 29.7787 12.78 29.7787 11.9C29.7787 11.0734 29.9854 10.3534 30.3987 9.74003C30.8121 9.12669 31.3921 8.66003 32.1387 8.34003C32.8854 8.00669 33.7387 7.84003 34.6987 7.84003C36.1387 7.84003 37.3054 8.19336 38.1987 8.90003C39.1054 9.59336 39.6054 10.5667 39.6987 11.82H36.6187C36.5921 11.34 36.3854 10.9467 35.9987 10.64C35.6254 10.32 35.1254 10.16 34.4987 10.16C33.9521 10.16 33.5121 10.3 33.1787 10.58C32.8587 10.86 32.6987 11.2667 32.6987 11.8C32.6987 12.1734 32.8187 12.4867 33.0587 12.74C33.3121 12.98 33.6187 13.18 33.9787 13.34C34.3521 13.4867 34.8721 13.66 35.5387 13.86C36.4454 14.1267 37.1854 14.3934 37.7587 14.66C38.3321 14.9267 38.8254 15.3267 39.2387 15.86C39.6521 16.3934 39.8587 17.0934 39.8587 17.96C39.8587 18.7067 39.6654 19.4 39.2787 20.04C38.8921 20.68 38.3254 21.1934 37.5787 21.58C36.8321 21.9534 35.9454 22.14 34.9187 22.14Z" fill="#CCDAD1"/>
<path d="M45.0862 19.78H49.6862V22H42.2862V8.04003H45.0862V19.78Z" fill="#CCDAD1"/>
<path d="M60.0259 19.34H54.4659L53.5459 22H50.6059L55.6259 8.02003H58.8859L63.9059 22H60.9459L60.0259 19.34ZM59.2659 17.1L57.2459 11.26L55.2259 17.1H59.2659Z" fill="#CCDAD1"/>
<path d="M70.6023 22.14C69.629 22.14 68.749 21.9734 67.9623 21.64C67.189 21.3067 66.5757 20.8267 66.1223 20.2C65.669 19.5734 65.4357 18.8334 65.4223 17.98H68.4223C68.4623 18.5534 68.6623 19.0067 69.0223 19.34C69.3957 19.6734 69.9023 19.84 70.5423 19.84C71.1957 19.84 71.709 19.6867 72.0823 19.38C72.4557 19.06 72.6423 18.6467 72.6423 18.14C72.6423 17.7267 72.5157 17.3867 72.2623 17.12C72.009 16.8534 71.689 16.6467 71.3023 16.5C70.929 16.34 70.409 16.1667 69.7423 15.98C68.8357 15.7134 68.0957 15.4534 67.5223 15.2C66.9623 14.9334 66.4757 14.54 66.0623 14.02C65.6623 13.4867 65.4623 12.78 65.4623 11.9C65.4623 11.0734 65.669 10.3534 66.0823 9.74003C66.4957 9.12669 67.0757 8.66003 67.8223 8.34003C68.569 8.00669 69.4223 7.84003 70.3823 7.84003C71.8223 7.84003 72.989 8.19336 73.8823 8.90003C74.789 9.59336 75.289 10.5667 75.3823 11.82H72.3023C72.2757 11.34 72.069 10.9467 71.6823 10.64C71.309 10.32 70.809 10.16 70.1823 10.16C69.6357 10.16 69.1957 10.3 68.8623 10.58C68.5423 10.86 68.3823 11.2667 68.3823 11.8C68.3823 12.1734 68.5023 12.4867 68.7423 12.74C68.9957 12.98 69.3023 13.18 69.6623 13.34C70.0357 13.4867 70.5557 13.66 71.2223 13.86C72.129 14.1267 72.869 14.3934 73.4423 14.66C74.0157 14.9267 74.509 15.3267 74.9223 15.86C75.3357 16.3934 75.5423 17.0934 75.5423 17.96C75.5423 18.7067 75.349 19.4 74.9623 20.04C74.5757 20.68 74.009 21.1934 73.2623 21.58C72.5157 21.9534 71.629 22.14 70.6023 22.14Z" fill="#CCDAD1"/>
<path d="M89.5498 8.04003V22H86.7498V16.06H80.7698V22H77.9698V8.04003H80.7698V13.78H86.7498V8.04003H89.5498Z" fill="#CCDAD1"/>
<path fill-rule="evenodd" clip-rule="evenodd" d="M21 22L25 6.99999L26.9325 7.51532L22.9325 22.5153L21 22Z" fill="#CCDAD1"/>
</svg>
