<svg width="17" height="16" viewBox="0 0 17 16" fill="none" xmlns="http://www.w3.org/2000/svg">
<path d="M6.17413 16L5.83582 13.44C5.65257 13.3733 5.48003 13.2933 5.31821 13.2C5.15582 13.1067 4.9971 13.0067 4.84204 12.9L2.32587 13.9L0 10.1L2.17786 8.54C2.16376 8.44667 2.15672 8.35653 2.15672 8.2696V7.7296C2.15672 7.6432 2.16376 7.55333 2.17786 7.46L0 5.9L2.32587 2.1L4.84204 3.1C4.9971 2.99333 5.1592 2.89333 5.32836 2.8C5.49751 2.70667 5.66667 2.62667 5.83582 2.56L6.17413 0H10.8259L11.1642 2.56C11.3474 2.62667 11.5202 2.70667 11.6826 2.8C11.8445 2.89333 12.0029 2.99333 12.158 3.1L14.6741 2.1L17 5.9L14.8221 7.46C14.8362 7.55333 14.8433 7.6432 14.8433 7.7296V8.2696C14.8433 8.35653 14.8292 8.44667 14.801 8.54L16.9789 10.1L14.653 13.9L12.158 12.9C12.0029 13.0067 11.8408 13.1067 11.6716 13.2C11.5025 13.2933 11.3333 13.3733 11.1642 13.44L10.8259 16H6.17413ZM8.54229 10.8C9.35987 10.8 10.0576 10.5267 10.6356 9.98C11.2135 9.43333 11.5025 8.77333 11.5025 8C11.5025 7.22667 11.2135 6.56667 10.6356 6.02C10.0576 5.47333 9.35987 5.2 8.54229 5.2C7.71061 5.2 7.00919 5.47333 6.43801 6.02C5.8674 6.56667 5.58209 7.22667 5.58209 8C5.58209 8.77333 5.8674 9.43333 6.43801 9.98C7.00919 10.5267 7.71061 10.8 8.54229 10.8Z" fill="#CCDAD1"/>
</svg>
