<svg width="23" height="24" viewBox="0 0 23 24" fill="none" xmlns="http://www.w3.org/2000/svg">
<path d="M11.4962 14.526C12.8912 14.526 14.0221 13.3951 14.0221 12C14.0221 10.605 12.8912 9.47406 11.4962 9.47406C10.1011 9.47406 8.97018 10.605 8.97018 12C8.97018 13.3951 10.1011 14.526 11.4962 14.526Z" stroke="black"/>
<path d="M3.15917 4.27051L3.47492 3.72238C3.35095 3.6507 3.20631 3.62329 3.06472 3.64463C2.92312 3.66598 2.79298 3.73481 2.69565 3.83983L3.15917 4.27051ZM0.634452 8.64551L0.0307426 8.45859C-0.0112772 8.59526 -0.00567389 8.74214 0.046636 8.87521C0.098946 9.00828 0.194866 9.11966 0.318705 9.19113L0.634452 8.64551ZM0.631926 15.3533L0.316179 14.8064C0.192073 14.8779 0.0959702 14.9895 0.0436441 15.1228C-0.00868202 15.2562 -0.014122 15.4033 0.0282168 15.5402L0.631926 15.3533ZM3.15791 19.7283L2.69439 20.1577C2.79172 20.2627 2.92186 20.3315 3.06345 20.3529C3.20505 20.3742 3.34969 20.3468 3.47365 20.2751L3.15791 19.7283ZM8.96766 23.0815H8.33617C8.3361 23.2249 8.38483 23.364 8.47435 23.4761C8.56387 23.5881 8.68885 23.6663 8.82873 23.6978L8.96766 23.0815ZM14.0209 23.084L14.1611 23.7004C14.3007 23.6686 14.4254 23.5903 14.5147 23.4783C14.604 23.3663 14.6525 23.2272 14.6524 23.084H14.0222H14.0209ZM19.8319 19.7295L19.5162 20.2764C19.6401 20.3481 19.7848 20.3755 19.9264 20.3541C20.068 20.3328 20.1981 20.264 20.2954 20.1589L19.8319 19.7295ZM22.3554 15.352L22.9591 15.5389C23.0011 15.4022 22.9955 15.2554 22.9432 15.1223C22.8909 14.9892 22.795 14.8779 22.6711 14.8064L22.3554 15.352ZM22.3579 8.64425L22.6736 9.19113C22.7977 9.11961 22.8938 9.00802 22.9462 8.87468C22.9985 8.74134 23.0039 8.59417 22.9616 8.45733L22.3579 8.64425ZM19.8319 4.26799L20.2954 3.83857C20.1981 3.73354 20.068 3.66471 19.9264 3.64337C19.7848 3.62203 19.6401 3.64944 19.5162 3.72111L19.8319 4.26799ZM14.0222 0.917274H14.6536C14.6535 0.774269 14.6048 0.635549 14.5156 0.523814C14.4263 0.412079 14.3018 0.333945 14.1623 0.302198L14.0222 0.917274ZM8.97019 0.914748L8.83 0.298409C8.69012 0.329955 8.56514 0.40817 8.47562 0.520187C8.38609 0.632204 8.33736 0.771354 8.33743 0.914748H8.96893H8.97019ZM1.23816 8.83244C1.71202 7.293 2.52661 5.8801 3.62142 4.69867L2.69565 3.83983C1.47163 5.16015 0.560782 6.73798 0.0307426 8.45859L1.23816 8.83244ZM2.19803 17.3677C1.79665 16.6725 1.47427 15.9345 1.2369 15.1676L0.0294797 15.5414C0.295551 16.3982 0.656477 17.2226 1.10555 17.9992L2.19803 17.3677ZM3.62269 19.3001C3.07773 18.711 2.59905 18.0629 2.19803 17.3677L1.10555 17.9992C1.55345 18.7761 2.0868 19.5005 2.69565 20.1589L3.62269 19.3001ZM13.882 22.4702C12.3114 22.8278 10.6805 22.8269 9.11038 22.4677L8.83 23.6978C10.5846 24.0994 12.4072 24.1007 14.1623 23.7016L13.882 22.4702ZM21.7542 15.1676C21.2803 16.707 20.4657 18.1199 19.3709 19.3014L20.2967 20.1602C21.5207 18.8399 22.4315 17.2608 22.9616 15.5402L21.7542 15.1676ZM20.7943 6.63231C21.2035 7.34337 21.5231 8.08096 21.7567 8.83244L22.9629 8.45859C22.6969 7.60179 22.336 6.7774 21.8868 6.00081L20.7943 6.63231ZM19.3697 4.69993C19.915 5.28869 20.3937 5.93689 20.7943 6.63231L21.8868 6.00081C21.4389 5.22388 20.9056 4.49948 20.2967 3.8411L19.3697 4.69993ZM9.11038 1.52982C10.6809 1.17228 12.3118 1.17314 13.882 1.53235L14.1623 0.302198C12.4077 -0.0994494 10.5852 -0.100745 8.83 0.298409L9.11038 1.52982ZM9.60169 3.25002V0.913485H8.33869V3.25002H9.60169ZM5.49697 4.88938L3.47492 3.72238L2.84342 4.81486L4.86421 5.98313L5.49697 4.88938ZM2.33949 13.6394L0.316179 14.8064L0.948937 15.9001L2.96972 14.7331L2.33949 13.6394ZM2.97098 9.26438L0.9502 8.09864L0.318705 9.19239L2.33949 10.3581L2.97098 9.26438ZM9.60169 23.0815V20.7488H8.33869V23.0815H9.60169ZM4.86547 18.0144L2.84342 19.1814L3.47492 20.2751L5.4957 19.1081L4.86547 18.0144ZM20.1489 19.1826L18.1269 18.0144L17.4954 19.1094L19.5162 20.2764L20.1489 19.1826ZM14.6536 23.0853V20.7488H13.3907V23.0853H14.6536ZM22.0434 8.09738L20.0214 9.26438L20.6529 10.3581L22.6736 9.19113L22.0434 8.09738ZM22.6724 14.8051L20.6529 13.6419L20.0214 14.7357L22.0421 15.9014L22.6736 14.8076L22.6724 14.8051ZM14.6536 3.25002V0.917274H13.3907V3.25002H14.6536ZM19.5174 3.72238L17.4954 4.89064L18.1269 5.98439L20.1489 4.81613L19.5174 3.72238ZM13.3907 3.25002C13.3907 5.68001 16.0215 7.19939 18.1269 5.98439L17.4954 4.89064C17.2073 5.05697 16.8805 5.14451 16.5478 5.14446C16.2152 5.1444 15.8884 5.05676 15.6004 4.89034C15.3123 4.72392 15.0732 4.48459 14.907 4.19642C14.7408 3.90826 14.6534 3.58267 14.6536 3.25002H13.3907ZM20.0214 9.26564C17.916 10.4806 17.916 13.5194 20.0214 14.7344L20.6529 13.6406C20.3649 13.4744 20.1257 13.2352 19.9595 12.9472C19.7932 12.6592 19.7057 12.3326 19.7057 12C19.7057 11.6675 19.7932 11.3408 19.9595 11.0528C20.1257 10.7648 20.3649 10.5257 20.6529 10.3594L20.0214 9.26564ZM18.1269 18.0156C16.0215 16.8006 13.3907 18.3175 13.3907 20.7488H14.6536C14.6537 20.4162 14.7412 20.0908 14.9075 19.8028C15.0738 19.5148 15.3129 19.2757 15.6009 19.1094C15.8889 18.9431 16.2156 18.8556 16.5481 18.8556C16.8807 18.8556 17.2074 18.9431 17.4954 19.1094L18.1269 18.0156ZM9.60169 20.7488C9.60169 18.3188 6.97088 16.8006 4.86547 18.0156L5.49697 19.1094C5.78505 18.9431 6.11186 18.8555 6.44451 18.8556C6.77717 18.8556 7.10394 18.9433 7.39198 19.1097C7.68001 19.2761 7.91915 19.5154 8.08534 19.8036C8.25153 20.0918 8.33891 20.4186 8.33869 20.7513H9.60169V20.7488ZM2.97098 14.7344C5.07639 13.5194 5.07639 10.4806 2.97098 9.26564L2.33949 10.3594C3.60248 11.0881 3.60248 12.9094 2.33949 13.6394L2.97098 14.7344ZM8.33869 3.25002C8.33846 3.58246 8.25076 3.90899 8.08439 4.1968C7.91802 4.48462 7.67884 4.72359 7.39088 4.88971C7.10292 5.05583 6.77632 5.14325 6.44388 5.14319C6.11144 5.14314 5.78487 5.0556 5.49697 4.88938L4.86547 5.98439C6.97088 7.19939 9.60169 5.68127 9.60169 3.25002H8.33869Z" fill="#5B4D4D"/>
</svg>
