<svg width="24" height="18" viewBox="0 0 24 18" fill="none" xmlns="http://www.w3.org/2000/svg">
<path d="M23.1144 0C23.6808 0 24.0348 0.461666 23.9041 1.03202L20.2557 16.968C20.1261 17.5383 19.5607 18 18.9943 18H0.816833C0.250469 18 -0.103509 17.5383 0.0271141 16.968L3.67557 1.03202C3.8052 0.461666 4.37057 0 4.93693 0H23.1144ZM14.7635 9.31908C15.0138 8.92621 14.9899 8.41669 14.6738 8.07966L9.09592 2.1448C8.71701 1.74197 8.0619 1.73898 7.63414 2.14181C7.20638 2.54266 7.16749 3.19477 7.54639 3.59761L12.195 8.54332V8.653L4.79634 14.0115C4.34763 14.3376 4.26487 14.9857 4.60988 15.4603C4.95488 15.935 5.59802 16.0556 6.04573 15.7296L14.251 9.83658C14.5302 9.64115 14.6878 9.47363 14.7635 9.31908ZM11.9756 13.7054C11.854 13.7046 11.7334 13.7278 11.6208 13.7736C11.5082 13.8195 11.4057 13.8871 11.3192 13.9725C11.2327 14.058 11.1639 14.1597 11.1167 14.2718C11.0696 14.3839 11.0449 14.5041 11.0443 14.6257C11.0443 15.1343 11.4611 15.5461 11.9756 15.5461H16.3958C16.5174 15.5469 16.638 15.5237 16.7506 15.4779C16.8633 15.432 16.9657 15.3644 17.0522 15.279C17.1387 15.1935 17.2075 15.0918 17.2547 14.9797C17.3019 14.8676 17.3265 14.7474 17.3271 14.6257C17.3265 14.5041 17.3019 14.3839 17.2547 14.2718C17.2075 14.1597 17.1387 14.058 17.0522 13.9725C16.9657 13.8871 16.8633 13.8195 16.7506 13.7736C16.638 13.7278 16.5174 13.7046 16.3958 13.7054H11.9756Z" fill="white"/>
</svg>
